<?xml version="1.0" standalone="no"?>
<!DOCTYPE svg PUBLIC "-//W3C//DTD SVG 20010904//EN"
 "http://www.w3.org/TR/2001/REC-SVG-20010904/DTD/svg10.dtd">
<svg version="1.0" xmlns="http://www.w3.org/2000/svg"
 width="1320.000000pt" height="316.000000pt" viewBox="0 0 1320.000000 316.000000"
 preserveAspectRatio="xMidYMid meet">

<g transform="translate(0.000000,316.000000) scale(0.100000,-0.100000)"
fill="#000000" stroke="none">
<path d="M80 3083 c0 -10 -14 -106 -30 -213 -16 -107 -27 -196 -26 -197 2 -2
111 12 242 31 193 29 722 102 859 120 17 2 75 -2 130 -10 55 -7 172 -22 260
-34 210 -27 732 -99 768 -105 18 -3 27 0 27 9 0 21 -50 380 -56 399 -5 16 -66
17 -1090 17 -1026 0 -1084 -1 -1084 -17z"/>
<path d="M955 2684 c-76 -14 -141 -27 -144 -29 -5 -5 16 -217 108 -1100 33
-313 67 -640 76 -725 8 -85 20 -186 26 -225 14 -91 98 -516 105 -535 8 -19 44
151 88 415 38 223 83 614 166 1430 28 275 57 556 65 624 8 69 14 126 12 127
-6 7 -293 44 -327 43 -19 -1 -98 -12 -175 -25z"/>
<path d="M5359 2630 c-112 -60 -130 -182 -40 -263 45 -41 85 -51 170 -45 107
8 175 74 174 170 -1 55 -18 85 -70 125 -32 25 -46 28 -117 31 -65 2 -88 -2
-117 -18z"/>
<path d="M10455 1855 l0 -745 135 0 135 0 0 745 0 745 -135 0 -135 0 0 -745z"/>
<path d="M12114 2563 c3 -21 6 -356 6 -745 l0 -708 135 0 135 0 0 246 c0 144
4 244 9 242 8 -3 99 -108 336 -387 39 -46 73 -87 76 -92 3 -6 79 -8 177 -7
l172 3 -122 135 c-67 74 -179 200 -250 280 l-129 144 233 233 233 233 -160 -1
-160 0 -78 -87 c-43 -48 -135 -145 -205 -217 l-127 -130 -3 448 -2 447 -141 0
-142 0 7 -37z"/>
<path d="M7495 2569 c-177 -26 -308 -107 -376 -231 -33 -62 -34 -65 -34 -183
0 -106 3 -126 24 -168 54 -109 185 -194 391 -252 120 -34 227 -84 262 -121 52
-57 58 -160 14 -227 -72 -110 -320 -127 -575 -41 -56 20 -104 34 -105 32 -4
-5 -35 -222 -33 -225 2 -1 45 -14 96 -27 185 -50 414 -58 570 -21 155 37 266
120 323 240 31 66 33 77 33 180 0 136 -20 188 -101 265 -64 61 -154 104 -344
166 -74 24 -157 57 -185 72 -87 47 -117 138 -76 227 13 30 31 47 71 69 47 26
67 30 155 34 111 5 226 -13 317 -49 28 -11 51 -18 53 -17 6 10 43 212 40 218
-8 12 -116 39 -220 55 -109 16 -206 17 -300 4z"/>
<path d="M8493 2516 c-96 -44 -94 -185 4 -228 114 -51 224 62 171 176 -24 53
-113 80 -175 52z"/>
<path d="M8911 2517 c-48 -17 -74 -56 -74 -112 0 -86 42 -125 134 -125 45 0
55 4 85 34 29 29 34 41 34 80 0 81 -32 121 -107 131 -21 2 -53 -1 -72 -8z"/>
<path d="M11165 2522 c-57 -20 -85 -60 -85 -122 0 -78 49 -120 140 -120 43 0
56 5 80 28 53 54 48 150 -11 194 -28 21 -92 31 -124 20z"/>
<path d="M11565 2520 c-83 -34 -99 -164 -27 -220 35 -28 129 -28 164 0 52 40
63 136 21 182 -36 41 -110 58 -158 38z"/>
<path d="M6065 2485 l-170 -30 -3 -108 -3 -107 -84 0 -85 0 0 -110 0 -110 63
0 c117 0 105 37 109 -343 3 -324 4 -333 27 -385 28 -62 85 -114 150 -138 97
-34 353 -28 449 12 l33 13 -4 103 c-2 82 -6 103 -18 101 -8 -1 -39 -6 -69 -13
-122 -25 -202 13 -215 101 -3 24 -5 157 -3 294 l3 250 148 3 147 3 0 109 0
110 -150 0 -149 0 -3 138 -3 138 -170 -31z"/>
<path d="M2184 2260 c-172 -24 -286 -87 -370 -206 -69 -97 -96 -184 -102 -324
-7 -204 34 -328 147 -441 121 -120 226 -154 476 -153 141 0 185 4 259 22 97
24 176 56 176 70 0 22 -30 205 -34 210 -3 2 -47 -9 -98 -26 -112 -37 -239 -56
-316 -47 -137 17 -235 99 -256 218 l-7 37 381 0 380 0 0 117 c0 176 -27 266
-109 371 -75 94 -204 149 -370 156 -53 3 -124 1 -157 -4z m223 -242 c47 -31
73 -80 80 -154 l6 -54 -211 0 c-116 0 -213 4 -216 9 -9 14 23 122 45 149 65
83 209 108 296 50z"/>
<path d="M3320 2259 c-101 -7 -155 -21 -231 -59 -77 -39 -110 -69 -144 -132
-27 -48 -30 -61 -30 -148 1 -112 18 -156 87 -214 69 -59 113 -77 366 -146 97
-27 132 -55 132 -107 0 -71 -90 -111 -230 -100 -95 7 -209 32 -273 59 -26 12
-50 18 -54 15 -7 -8 -42 -220 -37 -228 6 -11 154 -47 237 -58 187 -26 405 -3
516 53 126 65 191 166 192 302 0 64 -4 85 -28 133 -49 98 -135 145 -375 205
-111 27 -158 51 -176 88 -16 34 0 74 39 93 68 36 251 24 392 -24 42 -15 59
-17 61 -8 6 21 36 193 36 205 0 15 -111 48 -206 61 -112 15 -177 17 -274 10z"/>
<path d="M4587 2260 c-67 -12 -163 -60 -219 -109 -43 -38 -48 -40 -48 -21 0
12 -5 41 -11 66 l-11 44 -159 0 -159 0 2 -767 3 -768 173 -3 172 -2 0 270 c0
148 3 270 6 270 3 0 22 -13 42 -30 69 -54 127 -74 239 -78 123 -5 209 17 295
75 150 103 223 268 222 508 -1 202 -41 322 -144 426 -103 104 -244 145 -403
119z m50 -266 c93 -33 138 -131 137 -299 0 -116 -20 -188 -67 -242 -80 -91
-227 -107 -338 -37 l-39 24 0 248 0 248 42 25 c105 60 167 67 265 33z"/>
<path d="M5285 2228 c-3 -7 -4 -251 -3 -543 l3 -530 173 -3 172 -2 0 545 0
545 -170 0 c-127 0 -172 -3 -175 -12z"/>
<path d="M8628 2150 c-134 -24 -237 -77 -313 -161 -55 -61 -103 -170 -116
-264 -55 -392 188 -665 571 -641 208 13 337 81 434 228 61 93 79 165 80 313 1
142 -11 194 -65 290 -31 55 -115 141 -169 173 -95 56 -296 86 -422 62z m247
-216 c44 -22 98 -93 116 -152 6 -20 14 -82 16 -138 9 -181 -39 -293 -146 -342
-114 -53 -263 -22 -324 66 -54 78 -62 107 -62 252 0 120 3 141 23 185 29 62
75 112 127 136 56 27 193 23 250 -7z"/>
<path d="M9406 2088 c-3 -29 -6 -72 -6 -95 l0 -43 253 -1 c138 -1 263 -4 276
-8 23 -6 6 -28 -246 -316 -148 -171 -277 -316 -286 -324 -14 -11 -17 -32 -17
-102 l0 -89 455 0 455 0 0 95 0 95 -290 0 c-159 0 -290 4 -290 8 0 5 24 35 53
68 30 32 158 178 285 322 l232 264 0 89 0 89 -434 0 -433 0 -7 -52z"/>
<path d="M10932 1748 c3 -360 5 -398 23 -453 76 -232 425 -286 642 -101 44 39
55 43 52 23 -1 -6 -1 -33 0 -59 l1 -48 136 0 137 0 -7 38 c-3 20 -6 252 -6
515 l0 477 -135 0 -135 0 0 -367 0 -368 -55 -40 c-121 -88 -252 -98 -328 -27
-52 49 -57 92 -57 464 l0 338 -136 0 -135 0 3 -392z"/>
</g>
</svg>
